<?xml version="1.0"?>
<svg xmlns="http://www.w3.org/2000/svg" xmlns:xlink="http://www.w3.org/1999/xlink" version="1.1" viewBox="0 0 224 224" width="50px" height="50px"><g fill="none" fill-rule="nonzero" stroke="none" stroke-width="1" stroke-linecap="butt" stroke-linejoin="miter" stroke-miterlimit="10" stroke-dasharray="" stroke-dashoffset="0" font-family="none" font-weight="none" font-size="none" text-anchor="none" style="mix-blend-mode: normal"><path d="M0,224v-224h224v224z" fill="none"/><g fill="#ffffff"><path d="M183.68,17.92h-143.36c-12.3648,0 -22.4,10.0352 -22.4,22.4v143.36c0,12.3648 10.0352,22.4 22.4,22.4h143.36c12.3648,0 22.4,-10.0352 22.4,-22.4v-143.36c0,-12.3648 -10.0352,-22.4 -22.4,-22.4zM165.76,85.12h-8.96c-9.5872,0 -13.44,2.24 -13.44,8.96v13.44h22.4l-4.48,22.4h-17.92v67.2h-22.4v-67.2h-17.92v-22.4h17.92v-13.44c0,-17.92 8.96,-31.36 26.88,-31.36c12.992,0 17.92,4.48 17.92,4.48z"/></g></g></svg>
