<?xml version="1.0"?>
<svg xmlns="http://www.w3.org/2000/svg" xmlns:xlink="http://www.w3.org/1999/xlink" version="1.1" viewBox="0 0 224 224" width="50px" height="50px"><g fill="none" fill-rule="nonzero" stroke="none" stroke-width="1" stroke-linecap="butt" stroke-linejoin="miter" stroke-miterlimit="10" stroke-dasharray="" stroke-dashoffset="0" font-family="none" font-weight="none" font-size="none" text-anchor="none" style="mix-blend-mode: normal"><path d="M0,224v-224h224v224z" fill="none"/><g fill="#ffffff"><path d="M79.70368,209.82528c3.18528,-1.37088 5.41632,-4.53824 5.41632,-8.22528v-24.192c0,-0.88256 0.07168,-1.80096 0.18368,-2.7328c-0.06272,0.01792 -0.12096,0.03136 -0.18368,0.0448c0,0 -13.44,0 -16.128,0c-6.72,0 -12.544,-2.688 -15.232,-8.064c-3.136,-5.824 -4.48,-15.68 -12.544,-21.056c-1.344,-0.896 -0.448,-2.24 2.24,-2.24c2.688,0.448 8.512,4.032 12.096,8.96c4.032,4.928 8.064,8.96 15.232,8.96c11.14176,0 17.1136,-0.56 20.70656,-2.4864c4.18432,-6.22272 9.97696,-10.9536 16.02944,-10.9536v-0.112c-25.39264,-0.81536 -41.61472,-9.25568 -49.168,-22.288c-16.4192,0.18816 -30.71488,1.8144 -38.87296,3.16736c-0.25984,-1.46496 -0.48384,-2.93888 -0.67648,-4.42176c8.05056,-1.32608 21.69664,-2.89856 37.3856,-3.19872c-0.50176,-1.23648 -0.93632,-2.50432 -1.30368,-3.80352c-15.72928,-0.79744 -29.30368,-0.17472 -36.67776,0.43456c-0.0896,-1.48736 -0.21056,-2.97024 -0.22848,-4.47552c7.38752,-0.6048 20.59456,-1.2096 35.92064,-0.49728c-0.35392,-2.24 -0.5824,-4.52928 -0.5824,-6.91264c0,-7.616 2.688,-15.68 7.616,-22.4c-2.24,-7.616 -5.376,-23.744 0.896,-29.568c12.096,0 20.608,5.824 24.64,9.408c7.61152,-3.14048 16.12352,-4.93248 25.53152,-4.93248c9.408,0 17.92,1.792 25.088,4.928c4.032,-3.584 12.544,-9.408 24.64,-9.408c6.72,6.272 3.136,22.4 0.896,29.568c4.928,6.72 7.616,14.336 7.168,22.4c0,2.16832 -0.2016,4.26048 -0.4928,6.31232c15.67552,-0.77056 29.24096,-0.15232 36.75392,0.45696c-0.00896,1.50976 -0.14784,2.98368 -0.22848,4.47552c-7.48608,-0.61824 -21.392,-1.2544 -37.44832,-0.39872c-0.39872,1.50528 -0.88256,2.97024 -1.456,4.3904c15.88608,0.20608 29.8592,1.74272 38.29504,3.08672c-0.19264,1.48736 -0.41664,2.96128 -0.67648,4.42176c-8.56576,-1.37088 -23.16608,-2.97472 -39.77792,-3.05536c-7.4592,12.89344 -23.3856,21.3024 -48.28096,22.28352v0.13888c11.648,0 22.4,17.472 22.4,29.568v24.192c0,3.68704 2.23104,6.8544 5.41632,8.22528c41.04128,-13.58336 70.74368,-52.29056 70.74368,-97.82528c0,-56.81536 -46.22016,-103.04 -103.04,-103.04c-56.81984,0 -103.04,46.22464 -103.04,103.04c0,45.53472 29.7024,84.24192 70.74368,97.82528z"/></g></g></svg>
