<?xml version="1.0"?>
<svg xmlns="http://www.w3.org/2000/svg" xmlns:xlink="http://www.w3.org/1999/xlink" version="1.1" viewBox="0 0 224 224" width="50px" height="50px"><g fill="none" fill-rule="nonzero" stroke="none" stroke-width="1" stroke-linecap="butt" stroke-linejoin="miter" stroke-miterlimit="10" stroke-dasharray="" stroke-dashoffset="0" font-family="none" font-weight="none" font-size="none" text-anchor="none" style="mix-blend-mode: normal"><path d="M0,224v-224h224v224z" fill="none"/><g fill="#ffffff"><path d="M71.68,13.44c-32.1216,0 -58.24,26.1184 -58.24,58.24v80.64c0,32.1216 26.1184,58.24 58.24,58.24h80.64c32.1216,0 58.24,-26.1184 58.24,-58.24v-80.64c0,-32.1216 -26.1184,-58.24 -58.24,-58.24zM165.76,49.28c4.928,0 8.96,4.032 8.96,8.96c0,4.928 -4.032,8.96 -8.96,8.96c-4.928,0 -8.96,-4.032 -8.96,-8.96c0,-4.928 4.032,-8.96 8.96,-8.96zM112,62.72c27.1936,0 49.28,22.0864 49.28,49.28c0,27.1936 -22.0864,49.28 -49.28,49.28c-27.1936,0 -49.28,-22.0864 -49.28,-49.28c0,-27.1936 22.0864,-49.28 49.28,-49.28zM112,71.68c-22.2208,0 -40.32,18.0992 -40.32,40.32c0,22.2208 18.0992,40.32 40.32,40.32c22.2208,0 40.32,-18.0992 40.32,-40.32c0,-22.2208 -18.0992,-40.32 -40.32,-40.32z"/></g></g></svg>
