<?xml version="1.0"?>
<svg xmlns="http://www.w3.org/2000/svg" xmlns:xlink="http://www.w3.org/1999/xlink" version="1.1" viewBox="0 0 224 224" width="50px" height="50px"><g fill="none" fill-rule="nonzero" stroke="none" stroke-width="1" stroke-linecap="butt" stroke-linejoin="miter" stroke-miterlimit="10" stroke-dasharray="" stroke-dashoffset="0" font-family="none" font-weight="none" font-size="none" text-anchor="none" style="mix-blend-mode: normal"><path d="M0,224v-224h224v224z" fill="none"/><g fill="#ffffff"><g id="surface1"><path d="M24.64,31.36c-11.06,0 -20.1075,9.03 -20.16,20.09c0,0 0,0.0175 0,0.035c0,0.0175 0,0.0175 0,0.035v120.96c0,11.0775 9.0825,20.16 20.16,20.16h174.72c11.0775,0 20.16,-9.0825 20.16,-20.16v-120.96c0,-0.0175 0,-0.0175 0,-0.035c0,-0.0175 0,-0.035 0,-0.035c-0.0525,-11.06 -9.1,-20.09 -20.16,-20.09zM36.295,40.32h151.4275l-75.7225,52.78zM21.385,40.845l90.615,63.175l90.6325,-63.175c4.585,1.3825 7.8925,5.5475 7.9275,10.6225c-0.0175,0.945 -0.98,2.835 -2.38,4.3575c-1.4175,1.54 -2.8,2.5025 -2.8,2.5025l-0.0175,0.035l-93.3625,66.08l-93.3625,-66.08l-0.0175,-0.035c0,0 -1.3825,-0.9625 -2.8,-2.5025c-1.4,-1.5225 -2.3625,-3.4125 -2.38,-4.3575c0.035,-5.075 3.3425,-9.24 7.945,-10.6225zM13.44,65.6425l0.035,0.035l0.035,0.0175v0.0175l13.37,9.45v108.5175h-2.24c-6.23,0 -11.2,-4.97 -11.2,-11.2zM210.56,65.6425v106.8375c0,6.23 -4.97,11.2 -11.2,11.2h-2.24v-108.5175l13.37,-9.45v-0.0175zM35.84,81.4975l76.16,53.9l76.16,-53.9v102.1825h-152.32z"/></g></g></g></svg>
