<?xml version="1.0"?>
<svg xmlns="http://www.w3.org/2000/svg" xmlns:xlink="http://www.w3.org/1999/xlink" version="1.1" viewBox="0 0 224 224" width="50px" height="50px"><g fill="none" fill-rule="nonzero" stroke="none" stroke-width="1" stroke-linecap="butt" stroke-linejoin="miter" stroke-miterlimit="10" stroke-dasharray="" stroke-dashoffset="0" font-family="none" font-weight="none" font-size="none" text-anchor="none" style="mix-blend-mode: normal"><path d="M0,224v-224h224v224z" fill="none"/><g fill="#ffffff"><g id="surface1"><path d="M153.3,24.5c-26.7925,0 -48.58,21.7875 -48.58,48.58c0,1.61 0.4025,3.185 0.56,4.76c-33.1275,-3.1675 -62.4225,-19.1275 -82.32,-43.54c-0.9275,-1.1725 -2.3625,-1.8025 -3.8675,-1.6975c-1.4875,0.105 -2.8175,0.9625 -3.5525,2.2575c-4.1825,7.1925 -6.58,15.47 -6.58,24.36c0,10.7625 3.85,20.615 9.8,28.7c-1.155,-0.5075 -2.415,-0.7875 -3.5,-1.4c-1.3825,-0.735 -3.045,-0.7 -4.3925,0.105c-1.3475,0.805 -2.17,2.2575 -2.1875,3.815v0.56c0,16.5025 8.54,30.835 21.14,39.62c-0.14,-0.0175 -0.28,0.035 -0.42,0c-1.54,-0.2625 -3.0975,0.28 -4.13,1.4525c-1.0325,1.1725 -1.365,2.8 -0.91,4.2875c5.005,15.5575 17.78,27.44 33.6,31.78c-12.6,7.49 -27.2125,11.9 -42.98,11.9c-3.4125,0 -6.685,-0.175 -9.94,-0.56c-2.1,-0.28 -4.1125,0.945 -4.8125,2.94c-0.7175,1.995 0.07,4.2175 1.8725,5.32c20.2125,12.9675 44.205,20.58 70,20.58c41.8075,0 74.6025,-17.465 96.6,-42.42c21.9975,-24.955 33.46,-57.365 33.46,-87.64c0,-1.2775 -0.105,-2.52 -0.14,-3.78c8.2075,-6.2825 15.54,-13.65 21.28,-22.26c1.1375,-1.6625 1.015,-3.885 -0.2975,-5.425c-1.295,-1.54 -3.4825,-2.0125 -5.3025,-1.155c-2.31,1.0325 -5.005,1.1375 -7.42,1.96c3.185,-4.2525 5.915,-8.8375 7.56,-14c0.56,-1.7675 -0.0525,-3.71 -1.505,-4.865c-1.4525,-1.1375 -3.4825,-1.2775 -5.075,-0.315c-7.6475,4.5325 -16.1175,7.7175 -25.06,9.66c-8.68,-8.12 -20.1075,-13.58 -32.9,-13.58zM153.3,33.46c11.4275,0 21.7525,4.8825 28.98,12.6c1.085,1.12 2.6775,1.5925 4.2,1.26c5.845,-1.155 11.3925,-2.8525 16.8,-5.04c-3.115,4.2 -6.965,7.7875 -11.48,10.5c-2.0475,0.9975 -3.01,3.36 -2.2575,5.5125c0.735,2.135 2.975,3.3775 5.1975,2.8875c4.48,-0.5425 8.47,-2.3625 12.74,-3.5c-3.8325,4.1475 -8.0325,7.8925 -12.6,11.2c-1.2425,0.91 -1.925,2.38 -1.82,3.92c0.07,1.82 0.14,3.6225 0.14,5.46c0,28 -10.745,58.3975 -31.22,81.62c-20.475,23.2225 -50.54,39.48 -89.88,39.48c-17.8675,0 -34.7375,-3.955 -49.98,-10.92c18.9,-1.4525 36.33,-8.1375 50.4,-19.18c1.47,-1.1725 2.0475,-3.1325 1.4525,-4.9175c-0.595,-1.785 -2.24,-3.01 -4.1125,-3.0625c-14.77,-0.2625 -27.1425,-8.855 -33.74,-21c0.245,0 0.455,0 0.7,0c4.4275,0 8.8025,-0.56 12.88,-1.68c1.96,-0.5775 3.3075,-2.3975 3.2375,-4.445c-0.07,-2.0475 -1.5225,-3.7975 -3.5175,-4.235c-15.9425,-3.22 -27.895,-16.205 -30.66,-32.34c4.515,1.5575 9.135,2.7825 14.14,2.94c2.0475,0.1225 3.9025,-1.155 4.5325,-3.0975c0.63,-1.9425 -0.14,-4.0775 -1.8725,-5.1625c-10.64,-7.1225 -17.64,-19.25 -17.64,-33.04c0,-5.11 1.33,-9.8 3.08,-14.28c22.4,24.5875 53.76,40.915 89.18,42.7c1.4,0.07 2.765,-0.5075 3.675,-1.575c0.91,-1.085 1.26,-2.52 0.945,-3.885c-0.6825,-2.905 -1.12,-5.985 -1.12,-9.1c0,-21.945 17.675,-39.62 39.62,-39.62z"/></g></g></g></svg>
